<mxfile host="app.diagrams.net" agent="Mozilla/5.0 (Windows NT 10.0; Win64; x64) AppleWebKit/537.36 (KHTML, like Gecko) Chrome/138.0.0.0 Safari/537.36 Edg/138.0.0.0" version="27.2.0">
  <diagram name="第 1 页" id="BL33Wk_t1i76vv20U-yC">
    <mxGraphModel dx="994" dy="574" grid="1" gridSize="10" guides="1" tooltips="1" connect="1" arrows="1" fold="1" page="1" pageScale="1" pageWidth="827" pageHeight="1169" math="0" shadow="0">
      <root>
        <mxCell id="0" />
        <mxCell id="1" parent="0" />
        <mxCell id="JtPnfJSKvTgQJuxkpOk4-1" value="&lt;div&gt;While True:&lt;/div&gt;&lt;span style=&quot;white-space: pre;&quot;&gt;&#x9;&lt;/span&gt;&amp;nbsp; &amp;nbsp; &amp;nbsp;Condition.wait()&lt;div&gt;&lt;br&gt;&lt;/div&gt;" style="rounded=1;whiteSpace=wrap;html=1;" parent="1" vertex="1">
          <mxGeometry x="520" y="180" width="270" height="200" as="geometry" />
        </mxCell>
        <mxCell id="JtPnfJSKvTgQJuxkpOk4-4" style="edgeStyle=orthogonalEdgeStyle;rounded=0;orthogonalLoop=1;jettySize=auto;html=1;entryX=0;entryY=0.5;entryDx=0;entryDy=0;" parent="1" source="JtPnfJSKvTgQJuxkpOk4-2" target="JtPnfJSKvTgQJuxkpOk4-1" edge="1">
          <mxGeometry relative="1" as="geometry" />
        </mxCell>
        <mxCell id="JtPnfJSKvTgQJuxkpOk4-2" value="Condition lock：&lt;div&gt;1. shared&lt;/div&gt;&lt;div&gt;2. shared_index， 是mp.value&lt;/div&gt;&lt;div&gt;3. queue里面传入event，&lt;/div&gt;&lt;div&gt;以及shared_index&lt;/div&gt;&lt;div&gt;4. notify_all&lt;/div&gt;&lt;div&gt;event.wait()&lt;/div&gt;&lt;div&gt;&lt;br&gt;&lt;/div&gt;" style="rounded=1;whiteSpace=wrap;html=1;" parent="1" vertex="1">
          <mxGeometry x="140" y="180" width="200" height="110" as="geometry" />
        </mxCell>
        <mxCell id="JtPnfJSKvTgQJuxkpOk4-5" style="edgeStyle=orthogonalEdgeStyle;rounded=0;orthogonalLoop=1;jettySize=auto;html=1;entryX=0;entryY=0.5;entryDx=0;entryDy=0;" parent="1" source="JtPnfJSKvTgQJuxkpOk4-3" target="JtPnfJSKvTgQJuxkpOk4-1" edge="1">
          <mxGeometry relative="1" as="geometry" />
        </mxCell>
        <mxCell id="JtPnfJSKvTgQJuxkpOk4-3" value="Condition" style="rounded=1;whiteSpace=wrap;html=1;" parent="1" vertex="1">
          <mxGeometry x="220" y="330" width="120" height="60" as="geometry" />
        </mxCell>
      </root>
    </mxGraphModel>
  </diagram>
</mxfile>
